# xmcd
#
# Track frame offsets: 
#        150
#        28237
#        43772
#        59740
#        77420
#        91352
#        103362
#        130919
#        145799
#        157656
#        178722
#        195998
#        216341
#        228463
#        249070
#        259776
#        279797
#        292546
#        311801
#
# Disc length: 4360 seconds
#
# Revision: 0
# Processed by: cddbd v1.5.2PL0 Copyright (c) Steve Scherf et al.
# Submitted via: ExactAudioCopy v0.99pb3
#
DISCID=05110613
DTITLE=Mark Hummel - Odds and Ends
DYEAR=2008
DGENRE=Blues
TTITLE0=Double Trouble
TTITLE1=Ease My Mind
TTITLE2=Honey, Don't Let Me Go
TTITLE3=Rockinitis
TTITLE4=Go On Fool
TTITLE5=Those Lonely, Lonely Nights
TTITLE6=Feelin' Good
TTITLE7=Look What You Done
TTITLE8=jump With You Baby
TTITLE9=Summertime
TTITLE10=Ain't What You Say
TTITLE11=Easy
TTITLE12=Lover Not A Fighter
TTITLE13=How Long I Have To Wait
TTITLE14=Don't Boss Me
TTITLE15=One More Time
TTITLE16=Keep A Knockin'
TTITLE17=Hand To Mouth
TTITLE18=Dig That Crazy Chick
EXTD=
EXTT0=
EXTT1=
EXTT2=
EXTT3=
EXTT4=
EXTT5=
EXTT6=
EXTT7=
EXTT8=
EXTT9=
EXTT10=
EXTT11=
EXTT12=
EXTT13=
EXTT14=
EXTT15=
EXTT16=
EXTT17=
EXTT18=
PLAYORDER=
